
        <svg xmlns="http://www.w3.org/2000/svg" xmlns:xlink="http://www.w3.org/1999/xlink" version="1.1" width="3240" height="2664" viewBox="0 0 3240 2664">
			
			<g transform="scale(12) translate(10, 10)">
				<defs id="SvgjsDefs2110"><linearGradient id="SvgjsLinearGradient2117"><stop id="SvgjsStop2118" stop-color="#7f00ff" offset="0"/><stop id="SvgjsStop2119" stop-color="#e100ff" offset="1"/></linearGradient><linearGradient id="SvgjsLinearGradient2120"><stop id="SvgjsStop2121" stop-color="#7f00ff" offset="0"/><stop id="SvgjsStop2122" stop-color="#e100ff" offset="1"/></linearGradient></defs><g id="SvgjsG2111" featureKey="rootContainer" transform="matrix(1,0,0,1,0,0)" fill="#fff"><rect xmlns="http://www.w3.org/2000/svg" width="250" height="202" rx="10" ry="10"/></g><g id="SvgjsG2112" featureKey="symbolFeature-0" transform="matrix(0.8000088841047345,0,0,0.8000088841047345,84.99995557947632,15.999955579476328)" fill="#000000"><path xmlns="http://www.w3.org/2000/svg" d="M89.835,12.734c-4.654,5.033-13.821,14.664-14.562,25.833c0.552-13.091,8.473-24.064,13.568-28.001  C88.262,9.562,87.671,9,87.088,9c-1.668,0-5.08,2.643-8.397,7.042C70.875,9.17,60.676,5,49.505,5C24.926,5,5,25.147,5,50  c0,24.853,19.926,44.999,44.505,44.999c17.171,0,32.062-9.839,39.484-24.24C92.782,69.699,95,64.796,95,50  C95,37.001,92.643,20.116,89.835,12.734z M56,53c1.104,0,2,0.896,2,2s-0.896,2-2,2s-2-0.896-2-2S54.896,53,56,53z M19,53  c1.104,0,2,0.896,2,2s-0.896,2-2,2s-2-0.896-2-2S17.896,53,19,53z M88.077,58c-3.956,14-77.144,8-80.11,3  C6.528,58.574,5,51,5.989,51c0.271,0,3.371,0.375,8.139,0.775c-1.144,3.829,2.409,8.577,8.136,10.748  c5.882,2.229,11.815,0.892,13.253-2.988c0.799-2.158,0.036-4.646-1.809-6.814c6.509,0.056,13.412-0.186,19.827-0.992  c-2.473,2.327-3.63,5.207-2.746,7.681c1.394,3.896,7.311,5.304,13.219,3.145c5.907-2.16,9.567-7.067,8.175-10.963  c-0.554-1.548-1.83-2.696-3.527-3.39C87.002,41.85,86.138,40.04,87.088,41C88.077,42,92.033,44,88.077,58z"/></g><g id="SvgjsG2113" featureKey="nameFeature-0" transform="matrix(2.2638580199976954,0,0,2.2638580199976954,20,74.41996032241146)" fill="#000000"><path d="M10.68 42.88 c0 2.64 -2.12 4.76 -4.72 4.76 l-1.2 0 c-2.64 0 -4.76 -2.12 -4.76 -4.76 l3.8 0 c0 0.52 0.4 0.96 0.96 0.96 l1.2 0 c0.52 0 0.92 -0.44 0.92 -0.96 l0 -3.04 c-0.36 0.08 -0.72 0.16 -1.12 0.16 l-0.84 0 c-2.72 0 -4.92 -2.24 -4.92 -4.96 l0.08 -12.84 c0 -2.72 2.2 -4.92 4.92 -4.92 l0.08 0 l0.72 0.04 c2.68 0 4.88 2.2 4.88 4.92 l0 20.64 z M5.76 36.2 c0.64 0 1.12 -0.52 1.12 -1.16 l0 -12.8 c0 -0.64 -0.52 -1.12 -1.12 -1.12 l-0.08 0 l-0.72 -0.04 c-0.6 0 -1.08 0.52 -1.08 1.12 l-0.08 12.88 c0 0.6 0.52 1.12 1.12 1.12 l0.84 0 z M23.787 42.88 c0 2.64 -2.12 4.76 -4.72 4.76 l-1.2 0 c-2.64 0 -4.76 -2.12 -4.76 -4.76 l3.8 0 c0 0.52 0.4 0.96 0.96 0.96 l1.2 0 c0.52 0 0.92 -0.44 0.92 -0.96 l0 -3.04 c-0.36 0.08 -0.72 0.16 -1.12 0.16 l-0.84 0 c-2.72 0 -4.92 -2.24 -4.92 -4.96 l0.08 -12.84 c0 -2.72 2.2 -4.92 4.92 -4.92 l0.08 0 l0.72 0.04 c2.68 0 4.88 2.2 4.88 4.92 l0 20.64 z M18.866999999999997 36.2 c0.64 0 1.12 -0.52 1.12 -1.16 l0 -12.8 c0 -0.64 -0.52 -1.12 -1.12 -1.12 l-0.08 0 l-0.72 -0.04 c-0.6 0 -1.08 0.52 -1.08 1.12 l-0.08 12.88 c0 0.6 0.52 1.12 1.12 1.12 l0.84 0 z M36.894 42.88 c0 2.64 -2.12 4.76 -4.72 4.76 l-1.2 0 c-2.64 0 -4.76 -2.12 -4.76 -4.76 l3.8 0 c0 0.52 0.4 0.96 0.96 0.96 l1.2 0 c0.52 0 0.92 -0.44 0.92 -0.96 l0 -3.04 c-0.36 0.08 -0.72 0.16 -1.12 0.16 l-0.84 0 c-2.72 0 -4.92 -2.24 -4.92 -4.96 l0.08 -12.84 c0 -2.72 2.2 -4.92 4.92 -4.92 l0.08 0 l0.72 0.04 c2.68 0 4.88 2.2 4.88 4.92 l0 20.64 z M31.973999999999997 36.2 c0.64 0 1.12 -0.52 1.12 -1.16 l0 -12.8 c0 -0.64 -0.52 -1.12 -1.12 -1.12 l-0.08 0 l-0.72 -0.04 c-0.6 0 -1.08 0.52 -1.08 1.12 l-0.08 12.88 c0 0.6 0.52 1.12 1.12 1.12 l0.84 0 z M49.241 32.76 l0 7.2 l-3.68 0 l0 -0.12 c-0.36 0.08 -0.72 0.12 -1.12 0.12 c-2.8 0 -5.04 -2.24 -5.04 -5.04 l0 -4.28 c0 -1.12 0.44 -2.16 1.24 -2.96 c0.76 -0.76 1.8 -1.2 2.92 -1.2 l1.92 0 l0 -4.32 c0 -0.6 -0.52 -1.12 -1.12 -1.12 l-0.2 0 c-0.64 0 -1.12 0.52 -1.12 1.12 l0 3.04 l-3.72 0 l0 -3.04 c0 -2.68 2.16 -4.84 4.84 -4.84 l0.2 0 c2.68 0 4.84 2.16 4.84 4.84 z M44.440999999999995 36.24 c0.6 0 1.12 -0.48 1.12 -1.08 l-0.04 -4.92 l-1.96 -0.04 c-0.16 0 -0.24 0.08 -0.32 0.12 c-0.04 0.08 -0.12 0.16 -0.12 0.32 l0 4.28 c0 0.72 0.6 1.32 1.32 1.32 z M62.028 17.36 c2.6 0 4.72 2.12 4.72 4.72 l0 17.8 l-3.76 0 l0 -17.8 c0 -0.52 -0.44 -0.92 -0.96 -0.92 s-0.92 0.4 -0.92 0.92 l0 17.8 l-3.8 0 l0 -17.8 c0 -0.52 -0.4 -0.92 -0.92 -0.92 s-0.96 0.4 -0.96 0.92 l0 18 l-3.76 0 l0 -23.48 l3.76 0 l0 0.88 c0.32 -0.08 0.64 -0.12 0.96 -0.12 c1.04 0 2.04 0.36 2.84 0.96 c0.76 -0.6 1.76 -0.96 2.8 -0.96 z M74.375 39.92 c-2.88 0 -5.2 -2.36 -5.2 -5.24 l0 -12.48 c0 -2.64 2.16 -4.8 4.8 -4.8 l0.84 0 c2.64 0 4.8 2.16 4.8 4.8 l0 5.24 l-6.72 0.12 l0 7.12 c0 0.84 0.64 1.52 1.48 1.52 s1.52 -0.68 1.52 -1.52 l0 -2.48 l3.72 0 l0 2.48 c0 2.88 -2.36 5.24 -5.24 5.24 z M74.815 21.08 l-0.84 0 c-0.6 0 -1.08 0.52 -1.08 1.12 l0 1.68 l3 -0.08 l0 -1.6 c0 -0.6 -0.48 -1.12 -1.08 -1.12 z M87.402 39.96 c-2.96 0 -5.36 -2.4 -5.36 -5.36 l0 -3.12 l3.8 0 l0 3.12 c0 0.88 0.72 1.56 1.56 1.56 c0.88 0 1.56 -0.68 1.56 -1.56 l0 -1.72 l-6.92 -7.16 l0 -3.16 c0 -2.96 2.4 -5.4 5.36 -5.4 s5.36 2.44 5.36 5.4 l0 2.48 l-3.8 0 l0 -2.48 c0 -0.88 -0.68 -1.56 -1.56 -1.56 c-0.84 0 -1.56 0.68 -1.56 1.56 l0 1.6 l6.92 7.2 l0 3.24 c0 2.96 -2.4 5.36 -5.36 5.36 z"/></g>
			</g>
		</svg>
	