<svg xmlns="http://www.w3.org/2000/svg" width="845" height="475" viewBox="0 0 845 475"><rect width="100%" height="100%" fill="#DDDDDD"/><path fill="#999999" d="M201.325 268.075q3.42 0 6-.98 2.57-.98 4.34-2.72 1.76-1.73 2.66-4.14.89-2.41.89-5.21 0-6.66-3.69-10.08-3.7-3.42-10.2-3.42-6.49 0-10.19 3.42-3.69 3.42-3.69 10.08 0 2.8.89 5.21.9 2.41 2.66 4.14 1.77 1.74 4.34 2.72 2.58.98 5.99.98Zm0-61.55q-3.08 0-5.32.96-2.24.95-3.72 2.54-1.48 1.6-2.18 3.67-.7 2.07-.7 4.37 0 2.41.58 4.68.59 2.26 1.99 4.03 1.4 1.76 3.7 2.83 2.29 1.06 5.65 1.06 3.36 0 5.66-1.06 2.3-1.07 3.7-2.83 1.4-1.77 1.98-4.03.59-2.27.59-4.68 0-2.3-.73-4.37-.72-2.07-2.18-3.67-1.46-1.59-3.7-2.54-2.24-.96-5.32-.96Zm13.67 29.24q7.39 2.4 10.92 7.36 3.53 4.96 3.53 12.12 0 5.38-2.05 9.75-2.04 4.37-5.74 7.45-3.69 3.08-8.87 4.76-5.18 1.68-11.46 1.68-6.27 0-11.45-1.68t-8.87-4.76q-3.7-3.08-5.74-7.45-2.05-4.37-2.05-9.75 0-7.16 3.53-12.12 3.53-4.96 10.92-7.36-5.88-2.47-8.82-7-2.94-4.54-2.94-10.92 0-4.6 1.88-8.57 1.87-3.98 5.23-6.92 3.36-2.94 8.04-4.59 4.67-1.65 10.27-1.65t10.28 1.65q4.68 1.65 8.04 4.59 3.36 2.94 5.23 6.92 1.88 3.97 1.88 8.57 0 6.38-2.94 10.92-2.94 4.53-8.82 7Zm34.05 11.7h24.64v-26.49q0-3.75.5-8.29l-25.14 34.78Zm36.68 0h10.19v8.01q0 1.12-.73 1.93-.73.81-2.07.81h-7.39v19.77h-12.04v-19.77h-34.16q-1.4 0-2.47-.87-1.06-.86-1.34-2.15l-1.46-7 38.36-51.24h13.11v50.51Zm38.64-37.91-2.86 16.85q2.69-.56 5.15-.81 2.47-.25 4.76-.25 6.39 0 11.26 1.9 4.87 1.91 8.17 5.27 3.31 3.36 4.99 7.87 1.68 4.5 1.68 9.71 0 6.44-2.27 11.76-2.27 5.32-6.3 9.1-4.03 3.78-9.55 5.85-5.51 2.08-12.01 2.08-3.81 0-7.22-.79-3.42-.78-6.42-2.1-2.99-1.31-5.54-3.02t-4.56-3.61l4.25-5.88q1.35-1.91 3.53-1.91 1.4 0 2.86.9 1.45.89 3.33 1.96 1.87 1.06 4.42 1.96 2.55.89 6.13.89 3.81 0 6.72-1.23 2.92-1.23 4.85-3.44 1.93-2.21 2.91-5.27.98-3.05.98-6.63 0-6.61-3.84-10.33-3.83-3.73-11.34-3.73-5.76 0-11.81 2.13l-8.63-2.46 6.72-39.32h39.99v5.88q0 2.97-1.85 4.82t-6.27 1.85h-22.23Zm125.49 49.89-7.33 7.23-18.99-18.99-19.15 19.1-7.34-7.22 19.16-19.21-18.26-18.26 7.28-7.28 18.26 18.26 18.14-18.15 7.39 7.28-18.2 18.2 19.04 19.04Zm48.5-11.98h24.64v-26.49q0-3.75.5-8.29l-25.14 34.78Zm36.68 0h10.19v8.01q0 1.12-.73 1.93-.73.81-2.07.81h-7.39v19.77h-12.04v-19.77h-34.16q-1.4 0-2.47-.87-1.06-.86-1.34-2.15l-1.46-7 38.36-51.24h13.11v50.51Zm18.25-50.46h55.95v6q0 2.68-.56 4.34-.56 1.65-1.12 2.77l-30.69 63.17q-.95 1.96-2.69 3.33-1.73 1.37-4.65 1.37h-10.02l31.3-61.88q1.07-1.9 2.1-3.5 1.04-1.6 2.33-3.05h-38.75q-1.29 0-2.24-.95-.96-.96-.96-2.24v-9.36Zm85.35 12.55-2.86 16.85q2.69-.56 5.15-.81 2.47-.25 4.76-.25 6.39 0 11.26 1.9 4.87 1.91 8.18 5.27 3.3 3.36 4.98 7.87 1.68 4.5 1.68 9.71 0 6.44-2.27 11.76-2.27 5.32-6.3 9.1-4.03 3.78-9.55 5.85-5.51 2.08-12.01 2.08-3.81 0-7.22-.79-3.42-.78-6.41-2.1-3-1.31-5.55-3.02t-4.56-3.61l4.25-5.88q1.35-1.91 3.53-1.91 1.4 0 2.86.9 1.45.89 3.33 1.96 1.88 1.06 4.42 1.96 2.55.89 6.14.89 3.8 0 6.72-1.23 2.91-1.23 4.84-3.44 1.93-2.21 2.91-5.27.98-3.05.98-6.63 0-6.61-3.83-10.33-3.84-3.73-11.34-3.73-5.77 0-11.82 2.13l-8.62-2.46 6.72-39.32h39.98v5.88q0 2.97-1.85 4.82t-6.27 1.85h-22.23Z"/></svg>